PathFileType	4	(X/Y/Z)	C:/Users/opensim2020/Desktop/walking_exp_matlab/subject01_walking12_straight_02.trc																																																																																																																																		
DataRate	CameraRate	NumFrames	NumMarkers	Units	OrigDataRate	OrigDataStartFrame	OrigNumFrames																																																																																																																														
100	100	6	44	mm	100	1323	122																																																																																																																														
Frame#	Time	LFHD			RFHD			LBHD			RBHD			C7			T10			CLAV			STRN			RBAK			LSHO			LUPA			LELB			LFRM			LWRA			LWRB			LFIN			RSHO			RUPA			RELB			RFRM			RWRA			RWRB			RFIN			LASI			RASI			LPSI			RPSI			LTHI			LKNE			LTIB			LANK			LHEE			LTOE			RTHI			RKNE			RTIB			RANK			RHEE			RTOE			*39			*40			*41			*42			*43		
		X1	Y1	Z1	X2	Y2	Z2	X3	Y3	Z3	X4	Y4	Z4	X5	Y5	Z5	X6	Y6	Z6	X7	Y7	Z7	X8	Y8	Z8	X9	Y9	Z9	X10	Y10	Z10	X11	Y11	Z11	X12	Y12	Z12	X13	Y13	Z13	X14	Y14	Z14	X15	Y15	Z15	X16	Y16	Z16	X17	Y17	Z17	X18	Y18	Z18	X19	Y19	Z19	X20	Y20	Z20	X21	Y21	Z21	X22	Y22	Z22	X23	Y23	Z23	X24	Y24	Z24	X25	Y25	Z25	X26	Y26	Z26	X27	Y27	Z27	X28	Y28	Z28	X29	Y29	Z29	X30	Y30	Z30	X31	Y31	Z31	X32	Y32	Z32	X33	Y33	Z33	X34	Y34	Z34	X35	Y35	Z35	X36	Y36	Z36	X37	Y37	Z37	X38	Y38	Z38	X39	Y39	Z39	X40	Y40	Z40	X41	Y41	Z41	X42	Y42	Z42	X43	Y43	Z43	X44	Y44	Z44
																																																																																																																																					
77	0.76	-44.17427	1670.80518	-1499.56885	-24.59849	1674.24377	-1387.85242	-161.34373	1630.40698	-1486.2926	-143.47304	1632.81641	-1366.79419	-202.21181	1434.28821	-1440.40955	-236.15964	1139.51208	-1432.11047	-59.61263	1366.38354	-1449.79065	-14.58555	1213.21375	-1459.22241	-250.91722	1238.24622	-1358.61462	-130.36772	1397.82214	-1607.20618	-182.86209	1217.93127	-1688.38123	-207.46228	1066.96399	-1683.84839	-173.58568	957.29419	-1708.79089	-93.52036	841.96008	-1695.51697	-151.67361	836.82074	-1711.69641	-107.46127	764.63257	-1723.07239	-113.09074	1393.08679	-1294.04443	-156.41663	1192.37231	-1186.17712	-145.69919	1065.48914	-1180.12195	-89.68111	955.07086	-1158.87695	14.01377	863.31287	-1192.74207	-23.65064	851.76788	-1149.99475	32.24527	788.77863	-1157.04004	-59.93091	937.50818	-1549.36023	-56.87728	932.95605	-1331.94592	-245.09944	943.67371	-1497.18591	-242.10916	947.95135	-1352.86169	4.55021	629.84583	-1627.99023	32.06187	497.86475	-1616.59412	-63.42241	335.47421	-1613.5304	-141.75278	131.99179	-1557.07092	-177.60718	110.50087	-1492.60693	-23.56008	56.96778	-1593.90662	-138.04483	600.04065	-1291.51465	-148.43852	442.34164	-1323.28699	-222.0638	281.74982	-1323.31555	-275.33478	83.5813	-1378.61169	-329.54092	52.7655	-1428.1637	-139.47293	34.66045	-1381.60974	-36.43226	1708.55005	-1409.14819	-1973.02356	1023.60522	3101.98535	-2012.50098	1021.98608	3140.81201	NaN	NaN	NaN	NaN	NaN	NaN
78	0.77	-31.81293	1669.82227	-1500.54785	-12.26925	1673.44482	-1388.87903	-149.04892	1629.61682	-1487.27161	-131.2836	1632.19299	-1367.79431	-190.37483	1433.71924	-1441.09851	-224.70337	1138.93152	-1432.59424	-47.88077	1365.49817	-1450.56226	-3.1536	1212.21997	-1459.6748	-239.4892	1237.97717	-1358.90369	-118.69553	1396.81799	-1607.96594	-172.10155	1216.76355	-1688.49353	-197.76109	1066.29089	-1683.25903	-166.33698	955.95447	-1707.67468	-89.23541	838.66193	-1693.63708	-147.49048	834.91406	-1710.18262	-105.1899	761.35126	-1720.64038	-101.30637	1392.21729	-1294.88831	-143.61087	1191.95068	-1186.45459	-131.81047	1065.05493	-1179.65503	-72.79566	955.99432	-1158.81555	33.16122	867.33282	-1193.46265	-3.6811	854.71222	-1150.56348	53.90574	793.53821	-1157.81982	-48.34343	936.8869	-1549.68018	-46.09074	931.85132	-1332.02686	-233.80968	942.76276	-1498.1062	-231.34372	947.16833	-1353.82288	19.20245	630.86395	-1627.42749	47.57538	498.82385	-1616.24792	-40.003	330.66049	-1614.61572	-106.44968	122.53894	-1559.19629	-140.71849	98.6824	-1494.5647	16.13786	55.66501	-1597.04932	-131.27597	599.66681	-1291.91614	-143.45755	442.06299	-1323.44019	-219.22987	282.43423	-1323.58899	-274.78076	84.72934	-1378.68591	-329.14307	54.49345	-1428.30615	-139.39005	34.65447	-1381.64478	-24.14771	1707.59814	-1410.1532	-1973.0791	1023.36609	3101.98779	-2012.53906	1022.1665	3140.68555	NaN	NaN	NaN	NaN	NaN	NaN
79	0.78	-19.46518	1668.79846	-1501.61255	0.00395	1672.46887	-1389.91736	-136.80481	1628.79382	-1488.35559	-119.10336	1631.5293	-1368.86523	-178.57655	1433.07825	-1441.84595	-213.1219	1138.19385	-1433.24304	-36.13961	1364.54089	-1451.35535	8.45359	1211.22437	-1460.14758	-227.91739	1237.52063	-1359.29016	-107.07432	1395.70789	-1608.77441	-161.26385	1215.54541	-1688.72888	-187.83273	1065.54504	-1682.80591	-158.93025	954.69525	-1706.81921	-84.72384	835.36517	-1691.75391	-142.90233	833.01196	-1708.71521	-102.55229	758.1272	-1718.20471	-89.36116	1391.8551	-1295.58472	-130.76894	1191.55249	-1186.86841	-118.07201	1064.66882	-1179.35571	-56.08481	957.13263	-1158.91479	52.47824	871.72736	-1194.07642	15.94636	857.88464	-1151.10303	75.35007	798.55573	-1158.81482	-36.61369	936.21643	-1550.10339	-35.32233	930.78137	-1332.18079	-222.29858	941.84967	-1499.16394	-220.62532	946.63336	-1354.97522	32.9771	631.40479	-1626.98267	62.06094	499.36273	-1616.04907	-16.7698	325.96716	-1616.11963	-70.79104	113.95242	-1561.98682	-103.77573	87.69748	-1497.30444	56.26965	54.61264	-1599.4364	-124.30027	599.63501	-1292.33032	-138.92	442.05316	-1323.72217	-216.4043	283.29431	-1323.7655	-274.116	86.15829	-1378.78015	-328.69064	56.24963	-1428.44287	-139.27914	34.59761	-1381.62402	-11.7569	1706.68616	-1411.26648	-1972.97766	1023.99884	3102.02856	-2012.6178	1022.16003	3140.73071	NaN	NaN	NaN	NaN	NaN	NaN
80	0.79	-7.09386	1667.74097	-1502.76868	12.31354	1671.49683	-1390.98242	-124.47028	1627.96704	-1489.47095	-106.86581	1630.76599	-1370.05725	-166.6859	1432.24695	-1442.64148	-201.57329	1137.41895	-1434.07397	-24.3515	1363.53015	-1452.17908	20.03648	1210.17444	-1460.68298	-216.26448	1236.95154	-1359.87561	-95.35827	1394.54065	-1609.68103	-150.42833	1214.32153	-1689.11743	-177.69928	1064.72021	-1682.48706	-150.9426	953.2998	-1705.94897	-79.88509	832.18762	-1689.87073	-138.01514	831.35498	-1707.6333	-99.48384	755.1546	-1715.96155	-77.57726	1391.02222	-1296.53955	-118.03857	1191.10718	-1187.375	-104.47332	1064.29785	-1179.21704	-39.5773	958.3208	-1159.18982	71.03359	875.93457	-1195.04211	35.09345	861.2113	-1151.88501	96.04778	803.3233	-1159.84412	-24.65726	935.41309	-1550.48401	-24.38271	929.82397	-1332.46448	-210.69022	940.98846	-1500.34021	-209.64723	946.29016	-1356.30579	46.31598	632.13953	-1626.68921	75.4698	499.43976	-1615.95105	6.18087	321.52261	-1617.89099	-34.40057	105.61381	-1564.90613	-66.83748	77.48678	-1500.7522	96.66483	54.75307	-1601.18433	-117.2291	599.42529	-1292.67102	-133.9713	441.89691	-1323.85535	-213.55446	283.91702	-1323.94519	-273.30222	87.3687	-1378.76611	-328.21738	58.36593	-1428.52588	-139.39403	34.66641	-1381.77881	0.64595	1705.65405	-1412.40234	-1973.05396	1023.39691	3101.93994	-2012.50415	1021.94159	3140.60767	NaN	NaN	NaN	NaN	NaN	NaN
81	0.8	5.30702	1666.55566	-1503.93774	24.73461	1670.4353	-1392.19189	-112.16946	1627.0979	-1490.7168	-94.57558	1630.01318	-1371.19116	-154.80196	1431.41162	-1443.55176	-189.88513	1136.56201	-1435.05493	-12.54158	1362.50012	-1453.03552	31.8051	1209.12012	-1461.3208	-204.48882	1236.19995	-1360.53955	-83.60883	1393.34241	-1610.64832	-139.44322	1212.98047	-1689.54285	-167.34669	1063.76965	-1682.29797	-142.72408	951.90192	-1705.27136	-74.61784	829.12561	-1688.17236	-132.58624	829.60846	-1706.51636	-95.88773	752.35071	-1713.84534	-65.69424	1390.57178	-1297.34558	-105.3194	1190.65442	-1187.90881	-91.03778	1063.91455	-1179.2439	-23.33561	959.59808	-1159.54968	89.17099	880.14282	-1196.07031	53.97682	864.46094	-1152.75928	116.41937	808.20056	-1161.0647	-12.54516	934.53485	-1550.92065	-13.49241	928.77289	-1332.71436	-198.87645	940.21661	-1501.5741	-198.49644	946.12024	-1357.69055	58.27942	631.41406	-1626.01221	87.94489	498.8266	-1615.73193	28.88517	317.38776	-1619.76672	2.05556	98.26655	-1568.34033	-29.83769	68.30938	-1504.75049	136.98866	55.68681	-1602.07288	-110.13457	599.33246	-1292.90112	-129.01952	442.0108	-1323.88599	-210.64029	284.95993	-1324.18945	-272.52884	89.0502	-1378.76526	-327.69858	60.54933	-1428.55115	-139.22885	34.67356	-1381.82031	13.15764	1704.61816	-1413.60913	-1973.08582	1023.87219	3101.87598	-2012.44226	1021.89569	3140.73999	NaN	NaN	NaN	NaN	NaN	NaN
82	0.81	17.74308	1665.32605	-1505.19507	37.02731	1669.24866	-1393.43115	-99.8622	1626.16663	-1492.01648	-82.29726	1629.16797	-1372.45239	-142.89708	1430.573	-1444.72241	-178.1329	1135.59644	-1436.08899	-0.68443	1361.42627	-1454.03101	43.53966	1208.06213	-1462.04199	-192.62088	1235.32666	-1361.30127	-71.74197	1392.00562	-1611.64746	-128.37512	1211.57996	-1690.12231	-156.88005	1062.78845	-1682.19446	-134.32257	950.58398	-1704.81982	-68.93748	826.31024	-1686.69617	-126.68762	828.01746	-1705.71472	-91.73544	749.59888	-1711.87256	-53.77698	1389.76587	-1298.43274	-92.59994	1190.15564	-1188.51062	-77.72646	1063.57971	-1179.31982	-7.64841	960.88361	-1160.02417	106.89822	884.25897	-1197.2583	72.38761	867.73322	-1153.73291	136.24635	813.04883	-1162.40405	-0.23597	933.55975	-1551.36621	-2.41399	927.91956	-1333.125	-186.90102	939.51941	-1502.90613	-187.13623	946.0329	-1359.09827	69.61323	630.44458	-1625.68359	99.61109	497.68851	-1615.34412	50.99321	313.71558	-1621.58728	38.21803	92.06796	-1572.06177	6.79581	59.94514	-1509.07092	176.69923	58.26312	-1602.5332	-102.9002	599.50763	-1292.99207	-123.59383	441.86725	-1323.8302	-207.52618	286.08435	-1324.13953	-271.66293	90.79722	-1378.5752	-326.96741	63.00048	-1428.44043	-139.06433	34.70775	-1381.71265	25.64662	1703.4801	-1414.94189	-1973.10461	1023.79602	3102.0061	-2012.40576	1021.98645	3140.62134	NaN	NaN	NaN	NaN	NaN	NaN
